<mxfile host="app.diagrams.net" agent="Mozilla/5.0 (Macintosh; Intel Mac OS X 10_15_7) AppleWebKit/537.36 (KHTML, like Gecko) Chrome/135.0.0.0 Safari/537.36" version="26.1.1">
  <diagram name="Page-1" id="I2c3vv9add7Q0MTXITJJ">
    <mxGraphModel dx="1224" dy="658" grid="1" gridSize="10" guides="1" tooltips="1" connect="1" arrows="1" fold="1" page="1" pageScale="1" pageWidth="850" pageHeight="1100" math="0" shadow="0">
      <root>
        <mxCell id="0" />
        <mxCell id="1" parent="0" />
        <mxCell id="-pq2sLF6zHRyy4oUaqYe-11" style="edgeStyle=orthogonalEdgeStyle;rounded=0;orthogonalLoop=1;jettySize=auto;html=1;exitX=0.5;exitY=1;exitDx=0;exitDy=0;entryX=0.5;entryY=0;entryDx=0;entryDy=0;" parent="1" source="-pq2sLF6zHRyy4oUaqYe-1" target="-pq2sLF6zHRyy4oUaqYe-9" edge="1">
          <mxGeometry relative="1" as="geometry" />
        </mxCell>
        <mxCell id="-pq2sLF6zHRyy4oUaqYe-12" style="edgeStyle=orthogonalEdgeStyle;rounded=0;orthogonalLoop=1;jettySize=auto;html=1;exitX=0.5;exitY=1;exitDx=0;exitDy=0;" parent="1" source="-pq2sLF6zHRyy4oUaqYe-1" target="-pq2sLF6zHRyy4oUaqYe-8" edge="1">
          <mxGeometry relative="1" as="geometry" />
        </mxCell>
        <mxCell id="OZz0PycL4Xs699Xblhuw-9" style="edgeStyle=orthogonalEdgeStyle;rounded=0;orthogonalLoop=1;jettySize=auto;html=1;exitX=0.5;exitY=1;exitDx=0;exitDy=0;entryX=0.5;entryY=0;entryDx=0;entryDy=0;" parent="1" source="-pq2sLF6zHRyy4oUaqYe-1" target="-pq2sLF6zHRyy4oUaqYe-6" edge="1">
          <mxGeometry relative="1" as="geometry" />
        </mxCell>
        <mxCell id="-pq2sLF6zHRyy4oUaqYe-1" value="&lt;p data-darkreader-inline-color=&quot;&quot; style=&quot;margin: 0pt 0pt 0.0001pt; text-indent: 0pt; line-height: 30pt; font-family: &amp;quot;Times New Roman&amp;quot;; color: rgb(0, 0, 0); --darkreader-inline-color: var(--darkreader-text-000000, #fffddd);&quot; align=&quot;center&quot; class=&quot;MsoNormal&quot;&gt;&lt;font style=&quot;font-size: 14px;&quot;&gt;&lt;span style=&quot;font-family: 方正小标宋简体;&quot;&gt;高校资助&lt;/span&gt;&lt;span style=&quot;font-family: 方正小标宋简体;&quot;&gt;信&lt;/span&gt;&lt;span style=&quot;font-family: 方正小标宋简体;&quot;&gt;息管理系统设计&lt;/span&gt;&lt;/font&gt;&lt;span style=&quot;font-family: 方正小标宋简体; font-size: 18pt; font-size: 18pt;&quot;&gt;&lt;/span&gt;&lt;/p&gt;" style="rounded=0;whiteSpace=wrap;html=1;" parent="1" vertex="1">
          <mxGeometry x="270" y="120" width="240" height="40" as="geometry" />
        </mxCell>
        <mxCell id="-pq2sLF6zHRyy4oUaqYe-27" style="edgeStyle=orthogonalEdgeStyle;rounded=0;orthogonalLoop=1;jettySize=auto;html=1;exitX=0.5;exitY=1;exitDx=0;exitDy=0;entryX=0.5;entryY=0;entryDx=0;entryDy=0;" parent="1" source="-pq2sLF6zHRyy4oUaqYe-6" target="-pq2sLF6zHRyy4oUaqYe-18" edge="1">
          <mxGeometry relative="1" as="geometry" />
        </mxCell>
        <mxCell id="-pq2sLF6zHRyy4oUaqYe-28" style="edgeStyle=orthogonalEdgeStyle;rounded=0;orthogonalLoop=1;jettySize=auto;html=1;exitX=0.5;exitY=1;exitDx=0;exitDy=0;entryX=0.5;entryY=0;entryDx=0;entryDy=0;" parent="1" source="-pq2sLF6zHRyy4oUaqYe-6" target="-pq2sLF6zHRyy4oUaqYe-19" edge="1">
          <mxGeometry relative="1" as="geometry" />
        </mxCell>
        <mxCell id="-pq2sLF6zHRyy4oUaqYe-29" style="edgeStyle=orthogonalEdgeStyle;rounded=0;orthogonalLoop=1;jettySize=auto;html=1;exitX=0.5;exitY=1;exitDx=0;exitDy=0;entryX=0.5;entryY=0;entryDx=0;entryDy=0;" parent="1" source="-pq2sLF6zHRyy4oUaqYe-6" target="-pq2sLF6zHRyy4oUaqYe-20" edge="1">
          <mxGeometry relative="1" as="geometry" />
        </mxCell>
        <mxCell id="OZz0PycL4Xs699Xblhuw-8" style="edgeStyle=orthogonalEdgeStyle;rounded=0;orthogonalLoop=1;jettySize=auto;html=1;exitX=0.5;exitY=1;exitDx=0;exitDy=0;entryX=0.5;entryY=0;entryDx=0;entryDy=0;" parent="1" source="-pq2sLF6zHRyy4oUaqYe-6" target="OZz0PycL4Xs699Xblhuw-5" edge="1">
          <mxGeometry relative="1" as="geometry" />
        </mxCell>
        <mxCell id="-pq2sLF6zHRyy4oUaqYe-6" value="教&lt;div&gt;&lt;br&gt;&lt;/div&gt;&lt;div&gt;师&lt;/div&gt;" style="whiteSpace=wrap;html=1;rounded=0;" parent="1" vertex="1">
          <mxGeometry x="370" y="240" width="40" height="100" as="geometry" />
        </mxCell>
        <mxCell id="-pq2sLF6zHRyy4oUaqYe-30" style="edgeStyle=orthogonalEdgeStyle;rounded=0;orthogonalLoop=1;jettySize=auto;html=1;exitX=0.5;exitY=1;exitDx=0;exitDy=0;entryX=0.5;entryY=0;entryDx=0;entryDy=0;" parent="1" source="-pq2sLF6zHRyy4oUaqYe-8" target="-pq2sLF6zHRyy4oUaqYe-21" edge="1">
          <mxGeometry relative="1" as="geometry" />
        </mxCell>
        <mxCell id="-pq2sLF6zHRyy4oUaqYe-31" style="edgeStyle=orthogonalEdgeStyle;rounded=0;orthogonalLoop=1;jettySize=auto;html=1;exitX=0.5;exitY=1;exitDx=0;exitDy=0;entryX=0.5;entryY=0;entryDx=0;entryDy=0;" parent="1" source="-pq2sLF6zHRyy4oUaqYe-8" target="-pq2sLF6zHRyy4oUaqYe-22" edge="1">
          <mxGeometry relative="1" as="geometry" />
        </mxCell>
        <mxCell id="OZz0PycL4Xs699Xblhuw-2" style="edgeStyle=orthogonalEdgeStyle;rounded=0;orthogonalLoop=1;jettySize=auto;html=1;exitX=0.5;exitY=1;exitDx=0;exitDy=0;entryX=0.5;entryY=0;entryDx=0;entryDy=0;" parent="1" source="-pq2sLF6zHRyy4oUaqYe-8" target="OZz0PycL4Xs699Xblhuw-1" edge="1">
          <mxGeometry relative="1" as="geometry" />
        </mxCell>
        <mxCell id="OZz0PycL4Xs699Xblhuw-4" style="edgeStyle=orthogonalEdgeStyle;rounded=0;orthogonalLoop=1;jettySize=auto;html=1;exitX=0.5;exitY=1;exitDx=0;exitDy=0;entryX=0.5;entryY=0;entryDx=0;entryDy=0;" parent="1" source="-pq2sLF6zHRyy4oUaqYe-8" target="OZz0PycL4Xs699Xblhuw-3" edge="1">
          <mxGeometry relative="1" as="geometry" />
        </mxCell>
        <mxCell id="-pq2sLF6zHRyy4oUaqYe-8" value="管&lt;div&gt;&lt;br&gt;&lt;/div&gt;&lt;div&gt;理&lt;/div&gt;&lt;div&gt;&lt;br&gt;&lt;/div&gt;&lt;div&gt;员&lt;/div&gt;" style="whiteSpace=wrap;html=1;rounded=0;" parent="1" vertex="1">
          <mxGeometry x="580" y="240" width="40" height="100" as="geometry" />
        </mxCell>
        <mxCell id="-pq2sLF6zHRyy4oUaqYe-24" style="edgeStyle=orthogonalEdgeStyle;rounded=0;orthogonalLoop=1;jettySize=auto;html=1;exitX=0.5;exitY=1;exitDx=0;exitDy=0;entryX=0.5;entryY=0;entryDx=0;entryDy=0;" parent="1" source="-pq2sLF6zHRyy4oUaqYe-9" target="-pq2sLF6zHRyy4oUaqYe-14" edge="1">
          <mxGeometry relative="1" as="geometry" />
        </mxCell>
        <mxCell id="-pq2sLF6zHRyy4oUaqYe-25" style="edgeStyle=orthogonalEdgeStyle;rounded=0;orthogonalLoop=1;jettySize=auto;html=1;exitX=0.5;exitY=1;exitDx=0;exitDy=0;entryX=0.5;entryY=0;entryDx=0;entryDy=0;" parent="1" source="-pq2sLF6zHRyy4oUaqYe-9" target="-pq2sLF6zHRyy4oUaqYe-13" edge="1">
          <mxGeometry relative="1" as="geometry" />
        </mxCell>
        <mxCell id="VCXEHoogaVtb-tRKHHuo-2" style="edgeStyle=orthogonalEdgeStyle;rounded=0;orthogonalLoop=1;jettySize=auto;html=1;exitX=0.5;exitY=1;exitDx=0;exitDy=0;entryX=0.5;entryY=0;entryDx=0;entryDy=0;" edge="1" parent="1" source="-pq2sLF6zHRyy4oUaqYe-9" target="VCXEHoogaVtb-tRKHHuo-1">
          <mxGeometry relative="1" as="geometry" />
        </mxCell>
        <mxCell id="VCXEHoogaVtb-tRKHHuo-4" style="edgeStyle=orthogonalEdgeStyle;rounded=0;orthogonalLoop=1;jettySize=auto;html=1;exitX=0.5;exitY=1;exitDx=0;exitDy=0;entryX=0.5;entryY=0;entryDx=0;entryDy=0;" edge="1" parent="1" source="-pq2sLF6zHRyy4oUaqYe-9" target="-pq2sLF6zHRyy4oUaqYe-16">
          <mxGeometry relative="1" as="geometry" />
        </mxCell>
        <mxCell id="-pq2sLF6zHRyy4oUaqYe-9" value="学&lt;div&gt;&lt;br&gt;&lt;/div&gt;&lt;div&gt;生&lt;/div&gt;" style="whiteSpace=wrap;html=1;rounded=0;" parent="1" vertex="1">
          <mxGeometry x="160" y="240" width="40" height="100" as="geometry" />
        </mxCell>
        <mxCell id="-pq2sLF6zHRyy4oUaqYe-13" value="个&lt;div&gt;&lt;br&gt;&lt;/div&gt;&lt;div&gt;人&lt;/div&gt;&lt;div&gt;&lt;br&gt;&lt;/div&gt;&lt;div&gt;管&lt;/div&gt;&lt;div&gt;&lt;br&gt;&lt;/div&gt;&lt;div&gt;理&lt;/div&gt;" style="whiteSpace=wrap;html=1;rounded=0;" parent="1" vertex="1">
          <mxGeometry x="80" y="380" width="40" height="120" as="geometry" />
        </mxCell>
        <mxCell id="-pq2sLF6zHRyy4oUaqYe-14" value="资&lt;div&gt;&lt;br&gt;&lt;/div&gt;&lt;div&gt;助&lt;/div&gt;&lt;div&gt;&lt;br&gt;&lt;/div&gt;&lt;div&gt;申&lt;/div&gt;&lt;div&gt;&lt;br&gt;&lt;/div&gt;&lt;div&gt;请&lt;/div&gt;" style="whiteSpace=wrap;html=1;rounded=0;" parent="1" vertex="1">
          <mxGeometry x="130" y="380" width="40" height="120" as="geometry" />
        </mxCell>
        <mxCell id="-pq2sLF6zHRyy4oUaqYe-16" value="资&lt;div&gt;&lt;br&gt;&lt;/div&gt;&lt;div&gt;助&lt;/div&gt;&lt;div&gt;&lt;br&gt;&lt;/div&gt;&lt;div&gt;查&lt;/div&gt;&lt;div&gt;&lt;br&gt;&lt;/div&gt;&lt;div&gt;看&lt;/div&gt;" style="whiteSpace=wrap;html=1;rounded=0;" parent="1" vertex="1">
          <mxGeometry x="180" y="380" width="40" height="120" as="geometry" />
        </mxCell>
        <mxCell id="-pq2sLF6zHRyy4oUaqYe-18" value="资&lt;div&gt;&lt;br&gt;&lt;/div&gt;&lt;div&gt;助&lt;/div&gt;&lt;div&gt;&lt;br&gt;&lt;/div&gt;&lt;div&gt;管&lt;/div&gt;&lt;div&gt;&lt;br&gt;&lt;/div&gt;&lt;div&gt;理&lt;/div&gt;" style="whiteSpace=wrap;html=1;rounded=0;" parent="1" vertex="1">
          <mxGeometry x="290" y="380" width="40" height="120" as="geometry" />
        </mxCell>
        <mxCell id="-pq2sLF6zHRyy4oUaqYe-19" value="审&lt;div&gt;&lt;br&gt;&lt;/div&gt;&lt;div&gt;核&lt;/div&gt;&lt;div&gt;&lt;br&gt;&lt;/div&gt;&lt;div&gt;管&lt;/div&gt;&lt;div&gt;&lt;br&gt;&lt;/div&gt;&lt;div&gt;理&lt;/div&gt;" style="whiteSpace=wrap;html=1;rounded=0;" parent="1" vertex="1">
          <mxGeometry x="340" y="380" width="40" height="120" as="geometry" />
        </mxCell>
        <mxCell id="-pq2sLF6zHRyy4oUaqYe-20" value="资&lt;div&gt;&lt;br&gt;&lt;/div&gt;&lt;div&gt;助&lt;/div&gt;&lt;div&gt;&lt;br&gt;&lt;/div&gt;&lt;div&gt;发&lt;/div&gt;&lt;div&gt;&lt;br&gt;&lt;/div&gt;&lt;div&gt;放&lt;/div&gt;" style="whiteSpace=wrap;html=1;rounded=0;" parent="1" vertex="1">
          <mxGeometry x="390" y="380" width="40" height="120" as="geometry" />
        </mxCell>
        <mxCell id="-pq2sLF6zHRyy4oUaqYe-21" value="权&lt;div&gt;&lt;br&gt;&lt;/div&gt;&lt;div&gt;限&lt;/div&gt;&lt;div&gt;&lt;br&gt;&lt;/div&gt;&lt;div&gt;管&lt;/div&gt;&lt;div&gt;&lt;br&gt;&lt;/div&gt;&lt;div&gt;理&lt;/div&gt;" style="whiteSpace=wrap;html=1;rounded=0;" parent="1" vertex="1">
          <mxGeometry x="500" y="380" width="40" height="120" as="geometry" />
        </mxCell>
        <mxCell id="-pq2sLF6zHRyy4oUaqYe-22" value="日&lt;div&gt;&lt;br&gt;&lt;/div&gt;&lt;div&gt;志&lt;/div&gt;&lt;div&gt;&lt;br&gt;&lt;/div&gt;&lt;div&gt;查&lt;/div&gt;&lt;div&gt;&lt;br&gt;&lt;/div&gt;&lt;div&gt;看&lt;/div&gt;" style="whiteSpace=wrap;html=1;rounded=0;" parent="1" vertex="1">
          <mxGeometry x="650" y="380" width="40" height="120" as="geometry" />
        </mxCell>
        <mxCell id="OZz0PycL4Xs699Xblhuw-1" value="系&lt;div&gt;&lt;br&gt;&lt;/div&gt;&lt;div&gt;统&lt;/div&gt;&lt;div&gt;&lt;br&gt;&lt;/div&gt;&lt;div&gt;配&lt;/div&gt;&lt;div&gt;&lt;br&gt;&lt;/div&gt;&lt;div&gt;置&lt;/div&gt;" style="whiteSpace=wrap;html=1;rounded=0;" parent="1" vertex="1">
          <mxGeometry x="550" y="380" width="40" height="120" as="geometry" />
        </mxCell>
        <mxCell id="OZz0PycL4Xs699Xblhuw-3" value="数&lt;div&gt;&lt;br&gt;&lt;/div&gt;&lt;div&gt;据&lt;/div&gt;&lt;div&gt;&lt;br&gt;&lt;/div&gt;&lt;div&gt;管&lt;/div&gt;&lt;div&gt;&lt;br&gt;&lt;/div&gt;&lt;div&gt;理&lt;/div&gt;" style="whiteSpace=wrap;html=1;rounded=0;" parent="1" vertex="1">
          <mxGeometry x="600" y="380" width="40" height="120" as="geometry" />
        </mxCell>
        <mxCell id="OZz0PycL4Xs699Xblhuw-5" value="数&lt;div&gt;&lt;br&gt;&lt;/div&gt;&lt;div&gt;据&lt;/div&gt;&lt;div&gt;&lt;br&gt;&lt;/div&gt;&lt;div&gt;统&lt;/div&gt;&lt;div&gt;&lt;br&gt;&lt;/div&gt;&lt;div&gt;计&lt;/div&gt;" style="whiteSpace=wrap;html=1;rounded=0;" parent="1" vertex="1">
          <mxGeometry x="440" y="380" width="40" height="120" as="geometry" />
        </mxCell>
        <mxCell id="VCXEHoogaVtb-tRKHHuo-1" value="资&lt;div&gt;&lt;br&gt;&lt;/div&gt;&lt;div&gt;助&lt;/div&gt;&lt;div&gt;&lt;br&gt;&lt;/div&gt;&lt;div&gt;记&lt;/div&gt;&lt;div&gt;&lt;br&gt;&lt;/div&gt;&lt;div&gt;录&lt;/div&gt;" style="whiteSpace=wrap;html=1;rounded=0;" vertex="1" parent="1">
          <mxGeometry x="230" y="380" width="40" height="120" as="geometry" />
        </mxCell>
        <mxCell id="VCXEHoogaVtb-tRKHHuo-3" style="edgeStyle=orthogonalEdgeStyle;rounded=0;orthogonalLoop=1;jettySize=auto;html=1;exitX=0.5;exitY=1;exitDx=0;exitDy=0;" edge="1" parent="1" source="OZz0PycL4Xs699Xblhuw-3" target="OZz0PycL4Xs699Xblhuw-3">
          <mxGeometry relative="1" as="geometry" />
        </mxCell>
      </root>
    </mxGraphModel>
  </diagram>
</mxfile>
